<?xml version="1.0" encoding="UTF-8"?>
<svg id="Capa_1" xmlns="http://www.w3.org/2000/svg" version="1.1" viewBox="0 0 367.4 118">
  <!-- Generator: Adobe Illustrator 29.2.1, SVG Export Plug-In . SVG Version: 2.1.0 Build 116)  -->
  <defs>
    <style>
      .st0 {
        font-family: Poppins-Bold, Poppins;
        font-size: 24.2px;
        font-weight: 700;
      }

      .st0, .st1, .st2, .st3 {
        isolation: isolate;
      }

      .st0, .st4 {
        fill: #1a76d1;
      }

      .st1 {
        font-size: 23.6px;
      }

      .st1, .st2 {
        font-family: Poppins-Light, Poppins;
        font-weight: 300;
      }

      .st2 {
        font-size: 55.6px;
      }
    </style>
  </defs>
  <g class="st3">
    <text class="st2" transform="translate(6 77.7)"><tspan x="0" y="0">MG</tspan></text>
  </g>
  <path class="st4" d="M111,74.8c-3-1.7-5.4-4-7.2-7-1.8-3-2.7-6.4-2.7-10.2s.9-7.1,2.7-10.1c1.8-3,4.2-5.3,7.2-7s6.3-2.5,9.9-2.5,6.9.8,9.9,2.5,5.4,4,7.1,7c1.7,3,2.6,6.4,2.6,10.1s-.9,7.1-2.6,10.2-4.1,5.4-7.1,7c-3,1.7-6.3,2.5-9.9,2.5s-6.9-.8-9.9-2.5ZM128.3,65.7c1.8-2,2.8-4.7,2.8-8.1s-.9-6.1-2.8-8.1c-1.8-2-4.3-3-7.4-3s-5.6,1-7.4,3-2.8,4.7-2.8,8.2.9,6.1,2.8,8.1c1.8,2,4.3,3,7.4,3s5.5-1,7.4-3.1Z"/>
  <g class="st3">
    <text class="st1" transform="translate(175.1 52.3)"><tspan x="0" y="0">Meyer Gulisano</tspan></text>
  </g>
  <g class="st3">
    <text class="st0" transform="translate(175.1 80.2)"><tspan x="0" y="0">ODONTOLOGÍA</tspan></text>
  </g>
  <path d="M154.7,39.2c2.7,6.1,3.9,12.5,3.9,18.9s-1,11.6-3.2,17.2c-3.1,7.8-8.7,15.1-16.8,21.2-1.8,1.3-3.6,2.6-5.7,3.7,11.4-3.7,20.3-11.1,25.6-18.6.3-.4.7-1,1-1.4.2-.4.7-1.1.9-1.4.4-.7,1-1.9,1.4-2.6.3-.7.7-1.6,1-2.2,0-.2.6-1.7.7-1.9,3.4-9.7,3.2-20-.7-29.6-.2-.5-.6-1.3-.9-1.9,0-.2-.3-.6-.4-.7-.3-.5-.9-1.8-1.2-2.2-.2-.4-.7-1.1-.9-1.4-.3-.4-.7-1-1-1.4-5.3-7.5-14.2-14.8-25.6-18.6,10.6,6.1,17.7,14.4,21.7,23.1l.2-.2Z"/>
</svg>